{"title":"Birdman (2014) DVDRip H264 AAC","uid":11836302,"size":723875497,"categoryP":"video","categoryS":"movies","magnet":"?xt=urn:btih:3a58fe40dee35206fa0feb62c3269ea2fbdf78ec&amp;dn=Birdman+%282014%29+DVDRip+H264+AAC&amp;tr=udp%3A%2F%2Ftracker.openbittorrent.com%3A80&amp;tr=udp%3A%2F%2Fopen.demonii.com%3A1337&amp;tr=udp%3A%2F%2Ftracker.coppersurfer.tk%3A6969&amp;tr=udp%3A%2F%2Fexodus.desync.com%3A6969","seeders":0,"leechers":1,"uploader":"Xanthippus","files":1,"time":1429753841,"description":"A washed-up actor, who once played an iconic superhero, battles his ego and attempts to recover his family, his career and himself in the days leading up to the opening of his Broadway play.\n\n----\n\nVideo\nID                                       : 1\nFormat                                   : AVC\nFormat/Info                              : Advanced Video Codec\nFormat profile                           : High@L3\nFormat settings, CABAC                   : Yes\nFormat settings, ReFrames                : 4 frames\nCodec ID                                 : avc1\nCodec ID/Info                            : Advanced Video Coding\nDuration                                 : 1h 59mn\nBit rate                                 : 673 Kbps\nWidth                                    : 720 pixels\nHeight                                   : 448 pixels\nDisplay aspect ratio                     : 1.904\nOriginal display aspect ratio            : 1.905\nFrame rate mode                          : Constant\nFrame rate                               : 29.970 fps\nColor space                              : YUV\nChroma subsampling                       : 4:2:0\nBit depth                                : 8 bits\nScan type                                : Progressive\nBits/(Pixel*Frame)                       : 0.070\nStream size                              : 574 MiB (83%)\n\nAudio\nID                                       : 2\nFormat                                   : AAC\nFormat/Info                              : Advanced Audio Codec\nFormat profile                           : LC\nCodec ID                                 : 40\nDuration                                 : 1h 59mn\nDuration_LastFrame                       : -11ms\nBit rate mode                            : Constant\nBit rate                                 : 128 Kbps\nChannel(s)                               : 2 channels\nChannel positions                        : Front: L R\nSampling rate                            : 48.0 KHz\nCompression mode                         : Lossy\nStream size                              : 109 MiB (16%)\n\n----\n &lt;a href=&quot;\nhttp://www.imdb.com/title/tt2562232&quot; rel=&quot;nofollow&quot; target=&quot;_NEW&quot;&gt;\nhttp://www.imdb.com/title/tt2562232&lt;/a&gt;","torrent":{"xt":"urn:btih:3a58fe40dee35206fa0feb62c3269ea2fbdf78ec","amp;dn":"Birdman+%282014%29+DVDRip+H264+AAC","amp;tr":["udp%3A%2F%2Ftracker.openbittorrent.com%3A80","udp%3A%2F%2Fopen.demonii.com%3A1337","udp%3A%2F%2Ftracker.coppersurfer.tk%3A6969","udp%3A%2F%2Fexodus.desync.com%3A6969"],"infoHash":"3a58fe40dee35206fa0feb62c3269ea2fbdf78ec","infoHashBuffer":{"type":"Buffer","data":[58,88,254,64,222,227,82,6,250,15,235,98,195,38,158,162,251,223,120,236]},"announce":[],"urlList":[]}}